<mxfile host="65bd71144e">
    <diagram id="uI0QQhZLzy7bhk5F6QTL" name="vector">
        <mxGraphModel dx="1231" dy="640" grid="1" gridSize="10" guides="1" tooltips="1" connect="1" arrows="1" fold="1" page="1" pageScale="1" pageWidth="1169" pageHeight="827" math="0" shadow="0">
            <root>
                <mxCell id="0"/>
                <mxCell id="1" parent="0"/>
                <mxCell id="j3Hs4c6ASfswv3skXlVh-7" value="&lt;div&gt;reserve(&amp;gt;0)&lt;/div&gt;&lt;div&gt;reserve_more(&amp;gt;0)&lt;br&gt;&lt;/div&gt;" style="edgeStyle=orthogonalEdgeStyle;orthogonalLoop=1;jettySize=auto;html=1;elbow=vertical;jumpStyle=sharp;rounded=1;curved=1;" parent="1" source="j3Hs4c6ASfswv3skXlVh-1" target="j3Hs4c6ASfswv3skXlVh-6" edge="1">
                    <mxGeometry relative="1" as="geometry">
                        <Array as="points">
                            <mxPoint x="240" y="270"/>
                            <mxPoint x="240" y="270"/>
                        </Array>
                    </mxGeometry>
                </mxCell>
                <mxCell id="j3Hs4c6ASfswv3skXlVh-22" value="insert()" style="edgeStyle=orthogonalEdgeStyle;curved=1;rounded=1;jumpStyle=sharp;orthogonalLoop=1;jettySize=auto;html=1;elbow=vertical;" parent="1" source="j3Hs4c6ASfswv3skXlVh-1" target="j3Hs4c6ASfswv3skXlVh-14" edge="1">
                    <mxGeometry relative="1" as="geometry">
                        <Array as="points">
                            <mxPoint x="360" y="180"/>
                            <mxPoint x="360" y="180"/>
                        </Array>
                    </mxGeometry>
                </mxCell>
                <mxCell id="j3Hs4c6ASfswv3skXlVh-38" value="&lt;div&gt;destroy()&lt;/div&gt;" style="edgeStyle=orthogonalEdgeStyle;curved=1;rounded=1;jumpStyle=sharp;orthogonalLoop=1;jettySize=auto;html=1;labelBackgroundColor=default;elbow=vertical;" parent="1" source="j3Hs4c6ASfswv3skXlVh-1" target="j3Hs4c6ASfswv3skXlVh-2" edge="1">
                    <mxGeometry relative="1" as="geometry">
                        <Array as="points">
                            <mxPoint x="320" y="150"/>
                            <mxPoint x="320" y="150"/>
                        </Array>
                    </mxGeometry>
                </mxCell>
                <mxCell id="j3Hs4c6ASfswv3skXlVh-1" value="Empty (cap=0)" style="rounded=1;whiteSpace=wrap;html=1;" parent="1" vertex="1">
                    <mxGeometry x="200" y="160" width="160" height="40" as="geometry"/>
                </mxCell>
                <mxCell id="j3Hs4c6ASfswv3skXlVh-5" value="init()" style="edgeStyle=orthogonalEdgeStyle;orthogonalLoop=1;jettySize=auto;html=1;elbow=vertical;jumpStyle=sharp;rounded=1;curved=1;" parent="1" source="j3Hs4c6ASfswv3skXlVh-2" target="j3Hs4c6ASfswv3skXlVh-1" edge="1">
                    <mxGeometry relative="1" as="geometry">
                        <mxPoint x="247" y="120" as="sourcePoint"/>
                        <mxPoint x="247" y="160" as="targetPoint"/>
                        <Array as="points">
                            <mxPoint x="240" y="140"/>
                            <mxPoint x="240" y="140"/>
                        </Array>
                    </mxGeometry>
                </mxCell>
                <mxCell id="j3Hs4c6ASfswv3skXlVh-2" value="Uninitialized" style="rounded=1;whiteSpace=wrap;html=1;" parent="1" vertex="1">
                    <mxGeometry x="200" y="80" width="160" height="40" as="geometry"/>
                </mxCell>
                <mxCell id="j3Hs4c6ASfswv3skXlVh-17" value="insert()" style="edgeStyle=orthogonalEdgeStyle;curved=1;rounded=1;jumpStyle=sharp;orthogonalLoop=1;jettySize=auto;html=1;elbow=vertical;" parent="1" source="j3Hs4c6ASfswv3skXlVh-6" target="j3Hs4c6ASfswv3skXlVh-14" edge="1">
                    <mxGeometry x="0.2414" relative="1" as="geometry">
                        <Array as="points">
                            <mxPoint x="320" y="230"/>
                            <mxPoint x="480" y="230"/>
                        </Array>
                        <mxPoint as="offset"/>
                    </mxGeometry>
                </mxCell>
                <mxCell id="j3Hs4c6ASfswv3skXlVh-39" value="destroy()" style="edgeStyle=orthogonalEdgeStyle;curved=1;rounded=1;jumpStyle=sharp;orthogonalLoop=1;jettySize=auto;html=1;labelBackgroundColor=default;elbow=vertical;" parent="1" source="j3Hs4c6ASfswv3skXlVh-6" target="j3Hs4c6ASfswv3skXlVh-2" edge="1">
                    <mxGeometry relative="1" as="geometry">
                        <Array as="points">
                            <mxPoint x="40" y="350"/>
                            <mxPoint x="40" y="40"/>
                            <mxPoint x="280" y="40"/>
                        </Array>
                    </mxGeometry>
                </mxCell>
                <mxCell id="j3Hs4c6ASfswv3skXlVh-6" value="&lt;div&gt;Empty (cap&amp;gt;0)&lt;/div&gt;" style="rounded=1;whiteSpace=wrap;html=1;" parent="1" vertex="1">
                    <mxGeometry x="200" y="330" width="160" height="40" as="geometry"/>
                </mxCell>
                <mxCell id="j3Hs4c6ASfswv3skXlVh-19" value="&lt;div&gt;insert()&lt;/div&gt;&lt;div&gt;reserve(&amp;gt;cap)&lt;/div&gt;&lt;div&gt;reserve_more(&amp;gt;0)&lt;/div&gt;" style="edgeStyle=orthogonalEdgeStyle;curved=1;rounded=1;jumpStyle=sharp;orthogonalLoop=1;jettySize=auto;html=1;elbow=vertical;" parent="1" source="j3Hs4c6ASfswv3skXlVh-11" target="j3Hs4c6ASfswv3skXlVh-14" edge="1">
                    <mxGeometry relative="1" as="geometry">
                        <Array as="points">
                            <mxPoint x="840" y="240"/>
                            <mxPoint x="560" y="240"/>
                        </Array>
                    </mxGeometry>
                </mxCell>
                <mxCell id="j3Hs4c6ASfswv3skXlVh-23" value="clear()" style="edgeStyle=orthogonalEdgeStyle;curved=1;rounded=1;jumpStyle=sharp;orthogonalLoop=1;jettySize=auto;html=1;elbow=vertical;" parent="1" source="j3Hs4c6ASfswv3skXlVh-11" target="j3Hs4c6ASfswv3skXlVh-6" edge="1">
                    <mxGeometry x="0.0159" y="-30" relative="1" as="geometry">
                        <Array as="points">
                            <mxPoint x="840" y="350"/>
                        </Array>
                        <mxPoint as="offset"/>
                    </mxGeometry>
                </mxCell>
                <mxCell id="j3Hs4c6ASfswv3skXlVh-36" value="&lt;div&gt;destroy()&lt;/div&gt;" style="edgeStyle=orthogonalEdgeStyle;curved=1;rounded=1;jumpStyle=sharp;orthogonalLoop=1;jettySize=auto;html=1;labelBackgroundColor=default;elbow=vertical;" parent="1" source="j3Hs4c6ASfswv3skXlVh-11" target="j3Hs4c6ASfswv3skXlVh-2" edge="1">
                    <mxGeometry relative="1" as="geometry">
                        <Array as="points">
                            <mxPoint x="1000" y="180"/>
                            <mxPoint x="1000" y="40"/>
                            <mxPoint x="280" y="40"/>
                        </Array>
                    </mxGeometry>
                </mxCell>
                <mxCell id="j3Hs4c6ASfswv3skXlVh-11" value="Full" style="rounded=1;whiteSpace=wrap;html=1;" parent="1" vertex="1">
                    <mxGeometry x="760" y="160" width="160" height="40" as="geometry"/>
                </mxCell>
                <mxCell id="j3Hs4c6ASfswv3skXlVh-18" value="insert() [size+1=cap]" style="edgeStyle=orthogonalEdgeStyle;curved=1;rounded=1;jumpStyle=sharp;orthogonalLoop=1;jettySize=auto;html=1;elbow=vertical;" parent="1" source="j3Hs4c6ASfswv3skXlVh-14" target="j3Hs4c6ASfswv3skXlVh-11" edge="1">
                    <mxGeometry relative="1" as="geometry">
                        <Array as="points">
                            <mxPoint x="610" y="180"/>
                            <mxPoint x="610" y="180"/>
                        </Array>
                    </mxGeometry>
                </mxCell>
                <mxCell id="j3Hs4c6ASfswv3skXlVh-24" value="clear()" style="edgeStyle=orthogonalEdgeStyle;curved=1;rounded=1;jumpStyle=sharp;orthogonalLoop=1;jettySize=auto;html=1;elbow=vertical;" parent="1" source="j3Hs4c6ASfswv3skXlVh-14" target="j3Hs4c6ASfswv3skXlVh-6" edge="1">
                    <mxGeometry x="-0.2903" y="-30" relative="1" as="geometry">
                        <Array as="points">
                            <mxPoint x="520" y="350"/>
                        </Array>
                        <mxPoint as="offset"/>
                    </mxGeometry>
                </mxCell>
                <mxCell id="j3Hs4c6ASfswv3skXlVh-37" value="&lt;div&gt;destroy()&lt;/div&gt;" style="edgeStyle=orthogonalEdgeStyle;curved=1;rounded=1;jumpStyle=sharp;orthogonalLoop=1;jettySize=auto;html=1;labelBackgroundColor=default;elbow=vertical;" parent="1" source="j3Hs4c6ASfswv3skXlVh-14" target="j3Hs4c6ASfswv3skXlVh-2" edge="1">
                    <mxGeometry relative="1" as="geometry">
                        <Array as="points">
                            <mxPoint x="640" y="180"/>
                            <mxPoint x="640" y="50"/>
                            <mxPoint x="280" y="50"/>
                        </Array>
                    </mxGeometry>
                </mxCell>
                <mxCell id="j3Hs4c6ASfswv3skXlVh-14" value="&lt;div&gt;Non-empty&lt;/div&gt;" style="rounded=1;whiteSpace=wrap;html=1;" parent="1" vertex="1">
                    <mxGeometry x="440" y="160" width="160" height="40" as="geometry"/>
                </mxCell>
                <mxCell id="j3Hs4c6ASfswv3skXlVh-26" value="&lt;div&gt;reserve(&amp;lt;=cap)&lt;/div&gt;&lt;div&gt;reserve_more(&amp;lt;=cap-size)&lt;/div&gt;&lt;div&gt;insert() [size+1&amp;lt;cap]&lt;br&gt;&lt;/div&gt;" style="edgeStyle=orthogonalEdgeStyle;curved=1;rounded=1;jumpStyle=sharp;orthogonalLoop=1;jettySize=auto;html=1;elbow=vertical;labelBackgroundColor=default;" parent="1" source="j3Hs4c6ASfswv3skXlVh-14" target="j3Hs4c6ASfswv3skXlVh-14" edge="1">
                    <mxGeometry y="20" relative="1" as="geometry">
                        <Array as="points">
                            <mxPoint x="560" y="120"/>
                        </Array>
                        <mxPoint as="offset"/>
                    </mxGeometry>
                </mxCell>
                <mxCell id="j3Hs4c6ASfswv3skXlVh-28" value="&lt;div&gt;reserve(&amp;lt;=cap)&lt;/div&gt;&lt;div&gt;reserve_more(0)&lt;br&gt;&lt;/div&gt;" style="edgeStyle=orthogonalEdgeStyle;curved=1;rounded=1;jumpStyle=sharp;orthogonalLoop=1;jettySize=auto;html=1;labelBackgroundColor=default;elbow=vertical;" parent="1" source="j3Hs4c6ASfswv3skXlVh-11" target="j3Hs4c6ASfswv3skXlVh-11" edge="1">
                    <mxGeometry y="20" relative="1" as="geometry">
                        <Array as="points">
                            <mxPoint x="800" y="120"/>
                            <mxPoint x="880" y="120"/>
                        </Array>
                        <mxPoint as="offset"/>
                    </mxGeometry>
                </mxCell>
                <mxCell id="j3Hs4c6ASfswv3skXlVh-29" value="&lt;div&gt;reserve(&amp;lt;=cap)&lt;/div&gt;&lt;div&gt;reserve_more(&amp;lt;=cap)&lt;br&gt;&lt;/div&gt;" style="edgeStyle=orthogonalEdgeStyle;curved=1;rounded=1;jumpStyle=sharp;orthogonalLoop=1;jettySize=auto;html=1;labelBackgroundColor=default;elbow=vertical;" parent="1" source="j3Hs4c6ASfswv3skXlVh-6" target="j3Hs4c6ASfswv3skXlVh-6" edge="1">
                    <mxGeometry y="-20" relative="1" as="geometry">
                        <Array as="points">
                            <mxPoint x="320" y="400"/>
                        </Array>
                        <mxPoint as="offset"/>
                    </mxGeometry>
                </mxCell>
                <mxCell id="j3Hs4c6ASfswv3skXlVh-31" value="reserve(0)&lt;br&gt;reserve_more(0)" style="edgeStyle=orthogonalEdgeStyle;curved=1;rounded=1;jumpStyle=sharp;orthogonalLoop=1;jettySize=auto;html=1;labelBackgroundColor=default;elbow=vertical;" parent="1" source="j3Hs4c6ASfswv3skXlVh-1" target="j3Hs4c6ASfswv3skXlVh-1" edge="1">
                    <mxGeometry y="-20" relative="1" as="geometry">
                        <Array as="points">
                            <mxPoint x="150" y="190"/>
                        </Array>
                        <mxPoint as="offset"/>
                    </mxGeometry>
                </mxCell>
            </root>
        </mxGraphModel>
    </diagram>
    <diagram id="oA-NIzaTkpditrw6uUcH" name="ring_buffer">
        <mxGraphModel dx="1231" dy="640" grid="1" gridSize="10" guides="1" tooltips="1" connect="1" arrows="1" fold="1" page="1" pageScale="1" pageWidth="1169" pageHeight="827" math="0" shadow="0">
            <root>
                <mxCell id="l_eNUsTb4xMynW_R6mdH-0"/>
                <mxCell id="l_eNUsTb4xMynW_R6mdH-1" parent="l_eNUsTb4xMynW_R6mdH-0"/>
                <mxCell id="Eqo2pJ2n6mf_cfwkPHm_-2" value="ring_buffer_init()" style="edgeStyle=orthogonalEdgeStyle;html=1;entryX=0;entryY=0.5;entryDx=0;entryDy=0;exitX=0.25;exitY=1;exitDx=0;exitDy=0;rounded=1;elbow=vertical;curved=1;" parent="l_eNUsTb4xMynW_R6mdH-1" source="Eqo2pJ2n6mf_cfwkPHm_-0" target="Eqo2pJ2n6mf_cfwkPHm_-1" edge="1">
                    <mxGeometry relative="1" as="geometry"/>
                </mxCell>
                <mxCell id="Eqo2pJ2n6mf_cfwkPHm_-0" value="Uninitialized" style="rounded=1;whiteSpace=wrap;html=1;" parent="l_eNUsTb4xMynW_R6mdH-1" vertex="1">
                    <mxGeometry x="40" y="40" width="160" height="40" as="geometry"/>
                </mxCell>
                <mxCell id="Eqo2pJ2n6mf_cfwkPHm_-3" value="ring_buffer_destroy()" style="edgeStyle=orthogonalEdgeStyle;html=1;exitX=0.75;exitY=0;exitDx=0;exitDy=0;entryX=1;entryY=0.5;entryDx=0;entryDy=0;rounded=1;elbow=vertical;curved=1;" parent="l_eNUsTb4xMynW_R6mdH-1" source="Eqo2pJ2n6mf_cfwkPHm_-1" target="Eqo2pJ2n6mf_cfwkPHm_-0" edge="1">
                    <mxGeometry relative="1" as="geometry"/>
                </mxCell>
                <mxCell id="Eqo2pJ2n6mf_cfwkPHm_-1" value="Initialized" style="rounded=1;whiteSpace=wrap;html=1;" parent="l_eNUsTb4xMynW_R6mdH-1" vertex="1">
                    <mxGeometry x="200" y="120" width="160" height="40" as="geometry"/>
                </mxCell>
            </root>
        </mxGraphModel>
    </diagram>
</mxfile>